<?xml version="1.0" standalone="no"?><!DOCTYPE svg PUBLIC "-//W3C//DTD SVG 1.1//EN" "http://www.w3.org/Graphics/SVG/1.1/DTD/svg11.dtd"><svg t="1760168418468" class="icon" viewBox="0 0 1024 1024" version="1.1" xmlns="http://www.w3.org/2000/svg" p-id="3090" xmlns:xlink="http://www.w3.org/1999/xlink" width="200" height="200"><path d="M512 85.333333q18.005333 0 30.336 12.330667l298.666667 298.666667q12.330667 12.330667 12.330667 30.336 0 18.346667-12.16 30.506667t-30.506667 12.16q-18.005333 0-30.336-12.330667l-225.664-226.005333 0 665.002667q0 17.664-12.501333 30.165333t-30.165333 12.501333-30.165333-12.501333-12.501333-30.165333l0-665.002667-225.664 226.005333q-12.330667 12.330667-30.336 12.330667-18.346667 0-30.506667-12.16t-12.16-30.506667q0-18.005333 12.330667-30.336l298.666667-298.666667q12.330667-12.330667 30.336-12.330667z" fill="#ffffff" p-id="3091"></path></svg>